<?xml version="1.0" encoding="UTF-8" standalone="no"?>
<!-- Created with Inkscape (http://www.inkscape.org/) -->

<svg
   xmlns:ns0="http://www.iki.fi/pav/software/textext/"
   xmlns:dc="http://purl.org/dc/elements/1.1/"
   xmlns:cc="http://creativecommons.org/ns#"
   xmlns:rdf="http://www.w3.org/1999/02/22-rdf-syntax-ns#"
   xmlns:svg="http://www.w3.org/2000/svg"
   xmlns="http://www.w3.org/2000/svg"
   xmlns:xlink="http://www.w3.org/1999/xlink"
   xmlns:sodipodi="http://sodipodi.sourceforge.net/DTD/sodipodi-0.dtd"
   xmlns:inkscape="http://www.inkscape.org/namespaces/inkscape"
   width="523.89343"
   height="431.2861"
   id="svg2"
   version="1.1"
   inkscape:version="0.48.4 r9939"
   sodipodi:docname="model-diagram.svg">
  <sodipodi:namedview
     id="base"
     pagecolor="#ffffff"
     bordercolor="#666666"
     borderopacity="1.0"
     inkscape:pageopacity="0.0"
     inkscape:pageshadow="2"
     inkscape:zoom="1.9638936"
     inkscape:cx="261.94672"
     inkscape:cy="337.84927"
     inkscape:document-units="px"
     inkscape:current-layer="layer1"
     showgrid="false"
     inkscape:window-width="1680"
     inkscape:window-height="1026"
     inkscape:window-x="1680"
     inkscape:window-y="24"
     inkscape:window-maximized="1"
     fit-margin-top="0"
     fit-margin-left="0"
     fit-margin-right="0"
     fit-margin-bottom="0" />
  <defs
     id="defs4">
    <marker
       style="overflow:visible"
       id="Arrow1Sstart"
       refX="0"
       refY="0"
       orient="auto"
       inkscape:stockid="Arrow1Sstart">
      <path
         inkscape:connector-curvature="0"
         transform="matrix(0.2,0,0,0.2,1.2,0)"
         style="fill-rule:evenodd;stroke:#000000;stroke-width:1pt"
         d="M 0,0 5,-5 -12.5,0 5,5 0,0 z"
         id="path3814" />
    </marker>
    <marker
       style="overflow:visible"
       id="Arrow1Send"
       refX="0"
       refY="0"
       orient="auto"
       inkscape:stockid="Arrow1Send">
      <path
         inkscape:connector-curvature="0"
         transform="matrix(-0.2,0,0,-0.2,-1.2,0)"
         style="fill-rule:evenodd;stroke:#000000;stroke-width:1pt"
         d="M 0,0 5,-5 -12.5,0 5,5 0,0 z"
         id="path3817" />
    </marker>
    <marker
       style="overflow:visible"
       id="Arrow1Mstart"
       refX="0"
       refY="0"
       orient="auto"
       inkscape:stockid="Arrow1Mstart">
      <path
         inkscape:connector-curvature="0"
         transform="matrix(0.4,0,0,0.4,4,0)"
         style="fill-rule:evenodd;stroke:#000000;stroke-width:1pt"
         d="M 0,0 5,-5 -12.5,0 5,5 0,0 z"
         id="path3808" />
    </marker>
    <marker
       style="overflow:visible"
       id="Arrow1Mend"
       refX="0"
       refY="0"
       orient="auto"
       inkscape:stockid="Arrow1Mend">
      <path
         inkscape:connector-curvature="0"
         transform="matrix(-0.4,0,0,-0.4,-4,0)"
         style="fill-rule:evenodd;stroke:#000000;stroke-width:1pt"
         d="M 0,0 5,-5 -12.5,0 5,5 0,0 z"
         id="path3811" />
    </marker>
    <marker
       style="overflow:visible"
       id="Arrow1Mend-3"
       refX="0"
       refY="0"
       orient="auto"
       inkscape:stockid="Arrow1Mend">
      <path
         transform="matrix(-0.4,0,0,-0.4,-4,0)"
         style="fill-rule:evenodd;stroke:#000000;stroke-width:1pt"
         d="M 0,0 5,-5 -12.5,0 5,5 0,0 z"
         id="path3811-0"
         inkscape:connector-curvature="0" />
    </marker>
    <marker
       style="overflow:visible"
       id="Arrow1Mend-7"
       refX="0"
       refY="0"
       orient="auto"
       inkscape:stockid="Arrow1Mend">
      <path
         transform="matrix(-0.4,0,0,-0.4,-4,0)"
         style="fill-rule:evenodd;stroke:#000000;stroke-width:1pt"
         d="M 0,0 5,-5 -12.5,0 5,5 0,0 z"
         id="path3811-8"
         inkscape:connector-curvature="0" />
    </marker>
    <marker
       style="overflow:visible"
       id="Arrow1Mend-76"
       refX="0"
       refY="0"
       orient="auto"
       inkscape:stockid="Arrow1Mend">
      <path
         transform="matrix(-0.4,0,0,-0.4,-4,0)"
         style="fill-rule:evenodd;stroke:#000000;stroke-width:1pt"
         d="M 0,0 5,-5 -12.5,0 5,5 0,0 z"
         id="path3811-1"
         inkscape:connector-curvature="0" />
    </marker>
    <marker
       style="overflow:visible"
       id="Arrow1Mend-2"
       refX="0"
       refY="0"
       orient="auto"
       inkscape:stockid="Arrow1Mend">
      <path
         transform="matrix(-0.4,0,0,-0.4,-4,0)"
         style="fill-rule:evenodd;stroke:#000000;stroke-width:1pt"
         d="M 0,0 5,-5 -12.5,0 5,5 0,0 z"
         id="path3811-4"
         inkscape:connector-curvature="0" />
    </marker>
    <marker
       style="overflow:visible"
       id="Arrow1Mend-2-4"
       refX="0"
       refY="0"
       orient="auto"
       inkscape:stockid="Arrow1Mend">
      <path
         transform="matrix(-0.4,0,0,-0.4,-4,0)"
         style="fill-rule:evenodd;stroke:#000000;stroke-width:1pt"
         d="M 0,0 5,-5 -12.5,0 5,5 0,0 z"
         id="path3811-4-0"
         inkscape:connector-curvature="0" />
    </marker>
  </defs>
  <metadata
     id="metadata7">
    <rdf:RDF>
      <cc:Work
         rdf:about="">
        <dc:format>image/svg+xml</dc:format>
        <dc:type
           rdf:resource="http://purl.org/dc/dcmitype/StillImage" />
        <dc:title />
      </cc:Work>
    </rdf:RDF>
  </metadata>
  <g
     transform="translate(-114.14833,-276.53376)"
     id="layer1"
     inkscape:groupmode="layer"
     inkscape:label="Layer 1">
    <path
       sodipodi:nodetypes="cc"
       inkscape:connector-curvature="0"
       id="path2985"
       d="m 188.37576,632.03477 337.7649,-90.50383"
       style="fill:none;stroke:#000000;stroke-width:1px;stroke-linecap:butt;stroke-linejoin:miter;stroke-opacity:1" />
    <path
       sodipodi:nodetypes="ccccc"
       inkscape:connector-curvature="0"
       id="path2987"
       d="m 363.0075,277.03376 0,307.75764 110.09392,110.09392 0,-254.35492 L 363.2184,330.64739"
       style="fill:none;stroke:#000000;stroke-width:1;stroke-linecap:butt;stroke-linejoin:miter;stroke-miterlimit:4;stroke-opacity:1;stroke-dasharray:3, 3;stroke-dashoffset:0" />
    <path
       sodipodi:nodetypes="cc"
       inkscape:connector-curvature="0"
       id="path2991"
       d="m 188.37576,632.03477 88.07459,-23.59952"
       style="fill:none;stroke:#000000;stroke-width:6;stroke-linecap:round;stroke-linejoin:miter;stroke-miterlimit:4;stroke-opacity:1;stroke-dasharray:none" />
    <path
       sodipodi:nodetypes="cc"
       inkscape:connector-curvature="0"
       id="path2991-9"
       d="m 485.76763,527.09651 87.48465,25.70028"
       style="fill:none;stroke:#000000;stroke-width:6;stroke-linecap:round;stroke-linejoin:miter;stroke-miterlimit:4;stroke-opacity:1;stroke-dasharray:none" />
    <path
       inkscape:connector-curvature="0"
       id="path3781"
       d="M 363.0075,584.7914 472.6796,441.37403"
       style="fill:none;stroke:#000000;stroke-width:2;stroke-linecap:butt;stroke-linejoin:miter;stroke-miterlimit:4;stroke-opacity:1;stroke-dasharray:none" />
    <path
       style="fill:none;stroke:#000000;stroke-width:1;stroke-linecap:butt;stroke-linejoin:miter;stroke-miterlimit:4;stroke-opacity:1;stroke-dasharray:4, 4;stroke-dashoffset:0"
       d="m 525.39491,541.73076 83.36701,-22.33812"
       id="path3783"
       inkscape:connector-curvature="0"
       sodipodi:nodetypes="cc" />
    <path
       style="fill:none;stroke:#000000;stroke-width:4;stroke-linecap:round;stroke-linejoin:miter;stroke-miterlimit:4;stroke-opacity:1;stroke-dasharray:none;marker-end:url(#Arrow1Send)"
       d="M 242.53257,617.52349 321.64006,596.3267"
       id="path3796"
       inkscape:connector-curvature="0"
       sodipodi:nodetypes="cc" />
    <path
       transform="matrix(0.32851266,0,0,0.32851266,420.98797,352.25483)"
       d="m 190.09613,273.96207 c 0,16.81167 -13.62856,30.44022 -30.44023,30.44022 -16.81167,0 -30.44023,-13.62855 -30.44023,-30.44022 0,-16.81168 13.62856,-30.44023 30.44023,-30.44023 16.81167,0 30.44023,13.62855 30.44023,30.44023 z"
       sodipodi:ry="30.440228"
       sodipodi:rx="30.440228"
       sodipodi:cy="273.96207"
       sodipodi:cx="159.6559"
       id="path4244"
       style="fill:#000000;stroke:none"
       sodipodi:type="arc" />
    <path
       sodipodi:nodetypes="cc"
       inkscape:connector-curvature="0"
       id="path4242-7"
       d="m 474.4486,442.35009 64.73071,-17.34454"
       style="fill:none;stroke:#000000;stroke-width:3;stroke-linecap:round;stroke-linejoin:miter;stroke-miterlimit:4;stroke-opacity:1;stroke-dasharray:none;marker-end:url(#Arrow1Send)" />
    <path
       sodipodi:nodetypes="cc"
       inkscape:connector-curvature="0"
       id="path4242-7-7"
       d="M 117.38665,651.0943 158.9881,639.94723"
       style="fill:none;stroke:#000000;stroke-width:3;stroke-linecap:round;stroke-linejoin:miter;stroke-miterlimit:4;stroke-opacity:1;stroke-dasharray:none;marker-end:url(#Arrow1Send)" />
    <path
       sodipodi:nodetypes="ccc"
       inkscape:connector-curvature="0"
       id="path4296"
       d="m 117.52333,694.51422 0,-43.92753 31.84747,31.84746"
       style="fill:none;stroke:#000000;stroke-width:3;stroke-linecap:butt;stroke-linejoin:round;stroke-miterlimit:4;stroke-opacity:1;stroke-dasharray:none;marker-start:url(#Arrow1Sstart);marker-end:url(#Arrow1Send)" />
    <path
       sodipodi:nodetypes="cc"
       inkscape:connector-curvature="0"
       id="path4242-7-75"
       d="m 473.02505,442.39426 -41.10862,51.66168"
       style="fill:none;stroke:#000000;stroke-width:3;stroke-linecap:round;stroke-linejoin:miter;stroke-miterlimit:4;stroke-opacity:1;stroke-dasharray:none;marker-end:url(#Arrow1Send)" />
    <path
       sodipodi:nodetypes="cc"
       inkscape:connector-curvature="0"
       id="path4242-7-75-7"
       d="m 473.18179,440.80098 37.78748,59.11643"
       style="fill:none;stroke:#000000;stroke-width:3;stroke-linecap:round;stroke-linejoin:miter;stroke-miterlimit:4;stroke-opacity:1;stroke-dasharray:none;marker-end:url(#Arrow1Send)" />
    <path
       style="fill:none;stroke:#000000;stroke-width:4;stroke-linecap:round;stroke-linejoin:miter;stroke-miterlimit:4;stroke-opacity:1;stroke-dasharray:none;marker-end:url(#Arrow1Send)"
       d="m 556.74137,547.9464 75.81125,22.27099"
       id="path4724"
       inkscape:connector-curvature="0"
       sodipodi:nodetypes="cc" />
    <path
       inkscape:connector-curvature="0"
       id="path4918"
       d="m 226.74864,612.53194 -42.55419,-42.5542"
       style="fill:none;stroke:#000000;stroke-width:1px;stroke-linecap:butt;stroke-linejoin:miter;stroke-opacity:1" />
    <path
       sodipodi:nodetypes="cc"
       inkscape:connector-curvature="0"
       id="path4918-1"
       d="M 356.74085,577.89841 334.37661,555.53416"
       style="fill:none;stroke:#000000;stroke-width:1px;stroke-linecap:butt;stroke-linejoin:miter;stroke-opacity:1" />
    <path
       inkscape:connector-curvature="0"
       id="path4918-18"
       d="m 520.74534,531.30623 -42.55419,-42.5542"
       style="fill:none;stroke:#000000;stroke-width:1px;stroke-linecap:butt;stroke-linejoin:miter;stroke-opacity:1" />
    <path
       sodipodi:nodetypes="cc"
       inkscape:connector-curvature="0"
       id="path2985-7"
       d="M 213.17348,598.76709 342.70657,564.0588"
       style="fill:none;stroke:#000000;stroke-width:1px;stroke-linecap:butt;stroke-linejoin:miter;stroke-opacity:1;marker-start:url(#Arrow1Mstart);marker-end:url(#Arrow1Mend-2)" />
    <path
       sodipodi:nodetypes="cc"
       inkscape:connector-curvature="0"
       id="path2985-2"
       d="M 191.43046,575.78161 486.09581,496.82627"
       style="fill:none;stroke:#000000;stroke-width:1px;stroke-linecap:butt;stroke-linejoin:miter;stroke-opacity:1;marker-start:url(#Arrow1Mstart);marker-end:url(#Arrow1Mend-2)" />
    <path
       sodipodi:open="true"
       sodipodi:end="5.9026099"
       sodipodi:start="5.1905179"
       transform="matrix(1.2727736,-0.27606163,0.22332995,1.5223067,-206.73945,49.721496)"
       d="m 395.45207,292.76042 c 15.54783,17.28062 27.68087,45.97299 34.18565,80.8427"
       sodipodi:ry="156.54974"
       sodipodi:rx="72.994423"
       sodipodi:cy="431.75427"
       sodipodi:cx="361.86597"
       id="path7318"
       style="fill:none;stroke:#000000;stroke-width:0.70724744;stroke-miterlimit:4;stroke-opacity:1;stroke-dasharray:none;marker-end:url(#Arrow1Mend-2)"
       sodipodi:type="arc" />
    <path
       sodipodi:open="true"
       sodipodi:end="0.75215567"
       sodipodi:start="0"
       transform="matrix(0.74636433,-0.19414121,0.19414121,0.74636433,87.875908,238.90529)"
       d="m 542.95429,522.14313 c 0,11.74237 -8.26774,23.04575 -23.12833,31.62024"
       sodipodi:ry="46.28157"
       sodipodi:rx="85.729622"
       sodipodi:cy="522.14313"
       sodipodi:cx="457.22467"
       id="path8534"
       style="fill:none;stroke:#000000;stroke-width:1.29667938;stroke-linecap:butt;stroke-linejoin:round;stroke-miterlimit:4;stroke-opacity:1;stroke-dasharray:none;stroke-dashoffset:0;marker-end:url(#Arrow1Mend-2)"
       sodipodi:type="arc" />
    <path
       sodipodi:open="true"
       sodipodi:end="6.7780112"
       sodipodi:start="2.0954648"
       transform="matrix(0.31085826,-0.02646412,0.02646412,0.31085826,206.20901,152.82358)"
       d="m 414.28047,555.84207 c -40.9785,-10.77186 -54.97136,-34.59172 -31.25394,-53.20313 23.71743,-18.61141 76.16385,-24.96662 117.14235,-14.19476 40.11642,10.54526 54.51341,33.66252 32.50226,52.18894"
       sodipodi:ry="38.936256"
       sodipodi:rx="85.729622"
       sodipodi:cy="522.14313"
       sodipodi:cx="457.22467"
       id="path8534-2"
       style="fill:none;stroke:#000000;stroke-width:3.20530581;stroke-linecap:butt;stroke-linejoin:round;stroke-miterlimit:4;stroke-opacity:1;stroke-dasharray:none;stroke-dashoffset:0;marker-end:url(#Arrow1Mend-2)"
       sodipodi:type="arc" />
    <g
       id="g8801"
       style="stroke-width:0.0000001"
       ns0:page_width=""
       ns0:preamble=""
       ns0:text="$a$"
       transform="matrix(1.25,0,0,1.25,-10.675857,408.02485)">
      <defs
         id="defs8803">
        <g
           id="g8805">
          <symbol
             id="textext-6abbec20-0"
             overflow="visible"
             style="overflow:visible">
            <path
               id="path8808"
               d=""
               style="stroke:none"
               inkscape:connector-curvature="0" />
          </symbol>
          <symbol
             id="textext-6abbec20-1"
             overflow="visible"
             style="overflow:visible">
            <path
               id="path8811"
               d="M 3.71875,-3.765625 C 3.53125,-4.140625 3.25,-4.40625 2.796875,-4.40625 c -1.15625,0 -2.390625,1.46875 -2.390625,2.921875 0,0.9375 0.546875,1.59375 1.3125,1.59375 0.203125,0 0.703125,-0.046875 1.296875,-0.75 0.078125,0.421875 0.4375,0.75 0.90625,0.75 0.359375,0 0.578125,-0.234375 0.75,-0.546875 0.15625,-0.359375 0.296875,-0.96875 0.296875,-0.984375 0,-0.109375 -0.09375,-0.109375 -0.125,-0.109375 -0.09375,0 -0.109375,0.046875 -0.140625,0.1875 -0.171875,0.640625 -0.34375,1.234375 -0.75,1.234375 -0.28125,0 -0.296875,-0.265625 -0.296875,-0.453125 0,-0.21875 0.015625,-0.3125 0.125,-0.75 C 3.890625,-1.71875 3.90625,-1.828125 4,-2.203125 L 4.359375,-3.59375 c 0.0625,-0.28125 0.0625,-0.296875 0.0625,-0.34375 0,-0.171875 -0.109375,-0.265625 -0.28125,-0.265625 -0.25,0 -0.390625,0.21875 -0.421875,0.4375 z M 3.078125,-1.1875 C 3.015625,-1 3.015625,-0.984375 2.875,-0.8125 2.4375,-0.265625 2.03125,-0.109375 1.75,-0.109375 c -0.5,0 -0.640625,-0.546875 -0.640625,-0.9375 0,-0.5 0.3125,-1.71875 0.546875,-2.1875 0.3125,-0.578125 0.75,-0.953125 1.15625,-0.953125 0.640625,0 0.78125,0.8125 0.78125,0.875 0,0.0625 -0.015625,0.125 -0.03125,0.171875 z m 0,0"
               style="stroke:none"
               inkscape:connector-curvature="0" />
          </symbol>
        </g>
      </defs>
      <g
         id="textext-6abbec20-2">
        <g
           id="g8814"
           style="fill:#000000;fill-opacity:1">
          <use
             id="use8816"
             y="134.765"
             x="223.43201"
             xlink:href="#textext-6abbec20-1"
             width="744.09448"
             height="1052.3622" />
        </g>
      </g>
    </g>
    <g
       transform="matrix(1.25,0,0,1.25,33.546374,362.79782)"
       ns0:text="$b$"
       ns0:preamble=""
       ns0:page_width=""
       style="stroke-width:0.0000001"
       id="g8926">
      <defs
         id="defs8928">
        <g
           id="g8930">
          <symbol
             style="overflow:visible"
             overflow="visible"
             id="textext-dfa2d3a2-0">
            <path
               inkscape:connector-curvature="0"
               style="stroke:none"
               d=""
               id="path8933" />
          </symbol>
          <symbol
             style="overflow:visible"
             overflow="visible"
             id="textext-dfa2d3a2-1">
            <path
               inkscape:connector-curvature="0"
               style="stroke:none"
               d="m 2.375,-6.8125 c 0,0 0,-0.109375 -0.125,-0.109375 -0.21875,0 -0.953125,0.078125 -1.21875,0.109375 -0.078125,0 -0.1875,0.015625 -0.1875,0.1875 0,0.125 0.09375,0.125 0.25,0.125 0.46875,0 0.484375,0.0625 0.484375,0.171875 0,0.0625 -0.078125,0.40625 -0.125,0.609375 l -0.828125,3.25 c -0.109375,0.5 -0.15625,0.671875 -0.15625,1.015625 0,0.9375 0.53125,1.5625 1.265625,1.5625 1.171875,0 2.40625,-1.484375 2.40625,-2.921875 0,-0.90625 -0.53125,-1.59375 -1.328125,-1.59375 -0.453125,0 -0.875,0.296875 -1.171875,0.59375 z M 1.453125,-3.046875 C 1.5,-3.265625 1.5,-3.28125 1.59375,-3.390625 2.078125,-4.03125 2.53125,-4.1875 2.796875,-4.1875 c 0.359375,0 0.625,0.296875 0.625,0.9375 0,0.59375 -0.328125,1.734375 -0.515625,2.109375 -0.328125,0.671875 -0.78125,1.03125 -1.171875,1.03125 -0.34375,0 -0.671875,-0.265625 -0.671875,-1 0,-0.203125 0,-0.390625 0.15625,-1.015625 z m 0,0"
               id="path8936" />
          </symbol>
        </g>
      </defs>
      <g
         id="textext-dfa2d3a2-2">
        <g
           style="fill:#000000;fill-opacity:1"
           id="g8939">
          <use
             height="1052.3622"
             width="744.09448"
             xlink:href="#textext-dfa2d3a2-1"
             x="223.43201"
             y="134.765"
             id="use8941" />
        </g>
      </g>
    </g>
    <g
       id="g9071"
       style="stroke-width:0.0000001"
       ns0:page_width=""
       ns0:preamble=""
       ns0:text="$v_r$"
       transform="matrix(1.25,0,0,1.25,21.121791,452.25482)">
      <defs
         id="defs9073">
        <g
           id="g9075">
          <symbol
             id="textext-3d373746-0"
             overflow="visible"
             style="overflow:visible">
            <path
               id="path9078"
               d=""
               style="stroke:none"
               inkscape:connector-curvature="0" />
          </symbol>
          <symbol
             id="textext-3d373746-1"
             overflow="visible"
             style="overflow:visible">
            <path
               id="path9081"
               d="m 4.671875,-3.703125 c 0,-0.546875 -0.265625,-0.703125 -0.4375,-0.703125 -0.25,0 -0.5,0.265625 -0.5,0.484375 0,0.125 0.046875,0.1875 0.15625,0.296875 0.21875,0.203125 0.34375,0.453125 0.34375,0.8125 0,0.421875 -0.609375,2.703125 -1.765625,2.703125 -0.515625,0 -0.75,-0.34375 -0.75,-0.875 0,-0.546875 0.28125,-1.28125 0.578125,-2.109375 0.078125,-0.171875 0.125,-0.3125 0.125,-0.5 0,-0.4375 -0.3125,-0.8125 -0.8125,-0.8125 -0.9375,0 -1.3125,1.453125 -1.3125,1.53125 0,0.109375 0.09375,0.109375 0.109375,0.109375 0.109375,0 0.109375,-0.03125 0.15625,-0.1875 0.296875,-1 0.71875,-1.234375 1.015625,-1.234375 0.078125,0 0.25,0 0.25,0.3125 0,0.25 -0.109375,0.53125 -0.171875,0.703125 -0.4375,1.15625 -0.5625,1.609375 -0.5625,2.046875 0,1.078125 0.875,1.234375 1.328125,1.234375 1.671875,0 2.25,-3.296875 2.25,-3.8125 z m 0,0"
               style="stroke:none"
               inkscape:connector-curvature="0" />
          </symbol>
          <symbol
             id="textext-3d373746-2"
             overflow="visible"
             style="overflow:visible">
            <path
               id="path9084"
               d=""
               style="stroke:none"
               inkscape:connector-curvature="0" />
          </symbol>
          <symbol
             id="textext-3d373746-3"
             overflow="visible"
             style="overflow:visible">
            <path
               id="path9087"
               d="m 1.640625,-1.40625 c 0,-0.046875 0.171875,-0.671875 0.171875,-0.703125 0.015625,-0.0625 0.21875,-0.40625 0.453125,-0.578125 0.0625,-0.046875 0.25,-0.1875 0.5625,-0.1875 0.0625,0 0.234375,0 0.375,0.09375 -0.21875,0.0625 -0.296875,0.265625 -0.296875,0.390625 0,0.140625 0.109375,0.25 0.265625,0.25 0.171875,0 0.390625,-0.125 0.390625,-0.421875 0,-0.359375 -0.375,-0.515625 -0.734375,-0.515625 -0.359375,0 -0.671875,0.15625 -0.984375,0.5 -0.125,-0.421875 -0.546875,-0.5 -0.71875,-0.5 -0.25,0 -0.421875,0.171875 -0.546875,0.359375 -0.15625,0.265625 -0.25,0.671875 -0.25,0.71875 0,0.078125 0.09375,0.078125 0.125,0.078125 0.09375,0 0.09375,-0.015625 0.140625,-0.203125 0.109375,-0.421875 0.25,-0.75 0.515625,-0.75 0.1875,0 0.234375,0.15625 0.234375,0.34375 0,0.125 -0.0625,0.390625 -0.125,0.578125 -0.046875,0.1875 -0.109375,0.46875 -0.140625,0.625 L 0.84375,-0.4375 C 0.828125,-0.34375 0.78125,-0.171875 0.78125,-0.15625 0.78125,0 0.90625,0.0625 1.015625,0.0625 1.125,0.0625 1.265625,0 1.3125,-0.125 1.328125,-0.171875 1.40625,-0.484375 1.453125,-0.65625 z m 0,0"
               style="stroke:none"
               inkscape:connector-curvature="0" />
          </symbol>
        </g>
      </defs>
      <g
         id="textext-3d373746-4">
        <g
           id="g9090"
           style="fill:#000000;fill-opacity:1">
          <use
             id="use9092"
             y="134.765"
             x="223.43201"
             xlink:href="#textext-3d373746-1"
             width="744.09448"
             height="1052.3622" />
        </g>
        <g
           id="g9094"
           style="fill:#000000;fill-opacity:1">
          <use
             id="use9096"
             y="136.259"
             x="228.261"
             xlink:href="#textext-3d373746-3"
             width="744.09448"
             height="1052.3622" />
        </g>
      </g>
    </g>
    <g
       transform="matrix(1.25,0,0,1.25,321.7967,411.2537)"
       ns0:text="$v_f$"
       ns0:preamble=""
       ns0:page_width=""
       style="stroke-width:0.0000001"
       id="g9258">
      <defs
         id="defs9260">
        <g
           id="g9262">
          <symbol
             style="overflow:visible"
             overflow="visible"
             id="textext-f8b43ab0-0">
            <path
               inkscape:connector-curvature="0"
               style="stroke:none"
               d=""
               id="path9265" />
          </symbol>
          <symbol
             style="overflow:visible"
             overflow="visible"
             id="textext-f8b43ab0-1">
            <path
               inkscape:connector-curvature="0"
               style="stroke:none"
               d="m 4.671875,-3.703125 c 0,-0.546875 -0.265625,-0.703125 -0.4375,-0.703125 -0.25,0 -0.5,0.265625 -0.5,0.484375 0,0.125 0.046875,0.1875 0.15625,0.296875 0.21875,0.203125 0.34375,0.453125 0.34375,0.8125 0,0.421875 -0.609375,2.703125 -1.765625,2.703125 -0.515625,0 -0.75,-0.34375 -0.75,-0.875 0,-0.546875 0.28125,-1.28125 0.578125,-2.109375 0.078125,-0.171875 0.125,-0.3125 0.125,-0.5 0,-0.4375 -0.3125,-0.8125 -0.8125,-0.8125 -0.9375,0 -1.3125,1.453125 -1.3125,1.53125 0,0.109375 0.09375,0.109375 0.109375,0.109375 0.109375,0 0.109375,-0.03125 0.15625,-0.1875 0.296875,-1 0.71875,-1.234375 1.015625,-1.234375 0.078125,0 0.25,0 0.25,0.3125 0,0.25 -0.109375,0.53125 -0.171875,0.703125 -0.4375,1.15625 -0.5625,1.609375 -0.5625,2.046875 0,1.078125 0.875,1.234375 1.328125,1.234375 1.671875,0 2.25,-3.296875 2.25,-3.8125 z m 0,0"
               id="path9268" />
          </symbol>
          <symbol
             style="overflow:visible"
             overflow="visible"
             id="textext-f8b43ab0-2">
            <path
               inkscape:connector-curvature="0"
               style="stroke:none"
               d=""
               id="path9271" />
          </symbol>
          <symbol
             style="overflow:visible"
             overflow="visible"
             id="textext-f8b43ab0-3">
            <path
               inkscape:connector-curvature="0"
               style="stroke:none"
               d="m 2.84375,-2.75 0.671875,0 C 3.65625,-2.75 3.75,-2.75 3.75,-2.90625 3.75,-3 3.65625,-3 3.53125,-3 l -0.640625,0 c 0.15625,-0.890625 0.203125,-1.203125 0.265625,-1.40625 0.03125,-0.15625 0.1875,-0.296875 0.359375,-0.296875 0,0 0.1875,0 0.328125,0.078125 -0.296875,0.09375 -0.3125,0.34375 -0.3125,0.375 0,0.15625 0.125,0.265625 0.28125,0.265625 0.1875,0 0.390625,-0.15625 0.390625,-0.421875 0,-0.328125 -0.328125,-0.5 -0.6875,-0.5 -0.3125,0 -0.65625,0.171875 -0.84375,0.515625 C 2.53125,-4.125 2.484375,-3.8125 2.328125,-3 L 1.78125,-3 c -0.140625,0 -0.234375,0 -0.234375,0.15625 0,0.09375 0.09375,0.09375 0.21875,0.09375 l 0.515625,0 c 0,0.046875 -0.4375,2.546875 -0.609375,3.296875 -0.03125,0.15625 -0.15625,0.671875 -0.484375,0.671875 -0.015625,0 -0.171875,0 -0.3125,-0.078125 0.28125,-0.09375 0.3125,-0.34375 0.3125,-0.375 C 1.1875,0.609375 1.0625,0.5 0.90625,0.5 c -0.1875,0 -0.390625,0.15625 -0.390625,0.421875 0,0.3125 0.328125,0.5 0.671875,0.5 0.4375,0 0.75,-0.453125 0.828125,-0.609375 0.25,-0.46875 0.421875,-1.328125 0.4375,-1.40625 z m 0,0"
               id="path9274" />
          </symbol>
        </g>
      </defs>
      <g
         id="textext-f8b43ab0-4">
        <g
           style="fill:#000000;fill-opacity:1"
           id="g9277">
          <use
             height="1052.3622"
             width="744.09448"
             xlink:href="#textext-f8b43ab0-1"
             x="223.43201"
             y="134.765"
             id="use9279" />
        </g>
        <g
           style="fill:#000000;fill-opacity:1"
           id="g9281">
          <use
             height="1052.3622"
             width="744.09448"
             xlink:href="#textext-f8b43ab0-3"
             x="228.261"
             y="136.259"
             id="use9283" />
        </g>
      </g>
    </g>
    <g
       transform="matrix(1.25,0,0,1.25,324.28162,375.22241)"
       ns0:text="$\\delta$"
       ns0:preamble=""
       ns0:page_width=""
       style="stroke-width:0.0000001"
       id="g9731">
      <defs
         id="defs9733">
        <g
           id="g9735">
          <symbol
             style="overflow:visible"
             overflow="visible"
             id="textext-bc2b0a79-0">
            <path
               inkscape:connector-curvature="0"
               style="stroke:none"
               d=""
               id="path9738" />
          </symbol>
          <symbol
             style="overflow:visible"
             overflow="visible"
             id="textext-bc2b0a79-1">
            <path
               inkscape:connector-curvature="0"
               style="stroke:none"
               d="M 2.625,-4.359375 C 1.390625,-4.0625 0.421875,-2.765625 0.421875,-1.5625 0.421875,-0.59375 1.0625,0.125 2,0.125 c 1.15625,0 1.984375,-1.578125 1.984375,-2.953125 0,-0.90625 -0.390625,-1.40625 -0.734375,-1.84375 C 2.890625,-5.125 2.296875,-5.875 2.296875,-6.3125 c 0,-0.21875 0.203125,-0.453125 0.546875,-0.453125 0.3125,0 0.5,0.125 0.71875,0.265625 0.203125,0.125 0.390625,0.25 0.546875,0.25 C 4.359375,-6.25 4.5,-6.484375 4.5,-6.65625 4.5,-6.875 4.34375,-6.890625 3.984375,-6.984375 3.46875,-7.09375 3.328125,-7.09375 3.171875,-7.09375 c -0.78125,0 -1.140625,0.4375 -1.140625,1.03125 0,0.546875 0.296875,1.09375 0.59375,1.703125 z m 0.125,0.21875 c 0.25,0.46875 0.546875,1 0.546875,1.71875 0,0.65625 -0.375,2.328125 -1.296875,2.328125 -0.546875,0 -0.96875,-0.421875 -0.96875,-1.1875 0,-0.625 0.375,-2.5 1.71875,-2.859375 z m 0,0"
               id="path9741" />
          </symbol>
        </g>
      </defs>
      <g
         id="textext-bc2b0a79-2">
        <g
           style="fill:#000000;fill-opacity:1"
           id="g9744">
          <use
             height="1052.3622"
             width="744.09448"
             xlink:href="#textext-bc2b0a79-1"
             x="223.43201"
             y="134.765"
             id="use9746" />
        </g>
      </g>
    </g>
    <g
       transform="matrix(1.25,0,0,1.25,198.79333,255.94641)"
       ns0:text="$m$"
       ns0:preamble=""
       ns0:page_width=""
       style="stroke-width:0.0000001"
       id="g10209">
      <defs
         id="defs10211">
        <g
           id="g10213">
          <symbol
             style="overflow:visible"
             overflow="visible"
             id="textext-b2251154-0">
            <path
               inkscape:connector-curvature="0"
               style="stroke:none"
               d=""
               id="path10216" />
          </symbol>
          <symbol
             style="overflow:visible"
             overflow="visible"
             id="textext-b2251154-1">
            <path
               inkscape:connector-curvature="0"
               style="stroke:none"
               d="m 0.875,-0.59375 c -0.03125,0.15625 -0.09375,0.390625 -0.09375,0.4375 0,0.171875 0.140625,0.265625 0.296875,0.265625 0.125,0 0.296875,-0.078125 0.375,-0.28125 0,-0.015625 0.125,-0.484375 0.1875,-0.734375 l 0.21875,-0.890625 C 1.90625,-2.03125 1.96875,-2.25 2.03125,-2.46875 c 0.03125,-0.171875 0.109375,-0.46875 0.125,-0.5 0.140625,-0.3125 0.671875,-1.21875 1.625,-1.21875 0.453125,0 0.53125,0.375 0.53125,0.703125 0,0.25 -0.0625,0.53125 -0.140625,0.828125 L 3.890625,-1.5 3.6875,-0.75 c -0.03125,0.203125 -0.125,0.546875 -0.125,0.59375 0,0.171875 0.140625,0.265625 0.28125,0.265625 0.3125,0 0.375,-0.25 0.453125,-0.5625 0.140625,-0.5625 0.515625,-2.015625 0.59375,-2.40625 0.03125,-0.125 0.5625,-1.328125 1.65625,-1.328125 0.421875,0 0.53125,0.34375 0.53125,0.703125 0,0.5625 -0.421875,1.703125 -0.625,2.234375 -0.078125,0.234375 -0.125,0.34375 -0.125,0.546875 0,0.46875 0.34375,0.8125 0.8125,0.8125 0.9375,0 1.3125,-1.453125 1.3125,-1.53125 0,-0.109375 -0.09375,-0.109375 -0.125,-0.109375 -0.09375,0 -0.09375,0.03125 -0.140625,0.1875 -0.15625,0.53125 -0.46875,1.234375 -1.015625,1.234375 -0.171875,0 -0.25,-0.09375 -0.25,-0.328125 0,-0.25 0.09375,-0.484375 0.1875,-0.703125 0.1875,-0.53125 0.609375,-1.625 0.609375,-2.203125 0,-0.640625 -0.40625,-1.0625 -1.15625,-1.0625 -0.734375,0 -1.25,0.4375 -1.625,0.96875 0,-0.125 -0.03125,-0.46875 -0.3125,-0.703125 -0.25,-0.21875 -0.5625,-0.265625 -0.8125,-0.265625 -0.90625,0 -1.390625,0.640625 -1.5625,0.875 -0.046875,-0.578125 -0.46875,-0.875 -0.921875,-0.875 -0.453125,0 -0.640625,0.390625 -0.734375,0.5625 -0.171875,0.359375 -0.296875,0.9375 -0.296875,0.96875 0,0.109375 0.09375,0.109375 0.109375,0.109375 0.109375,0 0.109375,-0.015625 0.171875,-0.234375 0.171875,-0.703125 0.375,-1.1875 0.734375,-1.1875 0.15625,0 0.296875,0.078125 0.296875,0.453125 0,0.21875 -0.03125,0.328125 -0.15625,0.84375 z m 0,0"
               id="path10219" />
          </symbol>
        </g>
      </defs>
      <g
         id="textext-b2251154-2">
        <g
           style="fill:#000000;fill-opacity:1"
           id="g10222">
          <use
             height="1052.3622"
             width="744.09448"
             xlink:href="#textext-b2251154-1"
             x="223.43201"
             y="134.765"
             id="use10224" />
        </g>
      </g>
    </g>
    <g
       id="g10478"
       style="stroke-width:0.0000001"
       ns0:page_width=""
       ns0:preamble=""
       ns0:text="$\\theta$"
       transform="matrix(1.25,0,0,1.25,124.24583,259.67379)">
      <defs
         id="defs10480">
        <g
           id="g10482">
          <symbol
             id="textext-bc687335-0"
             overflow="visible"
             style="overflow:visible">
            <path
               id="path10485"
               d=""
               style="stroke:none"
               inkscape:connector-curvature="0" />
          </symbol>
          <symbol
             id="textext-bc687335-1"
             overflow="visible"
             style="overflow:visible">
            <path
               id="path10488"
               d="m 4.53125,-4.984375 c 0,-0.65625 -0.171875,-2.046875 -1.1875,-2.046875 -1.390625,0 -2.921875,2.8125 -2.921875,5.09375 0,0.9375 0.28125,2.046875 1.1875,2.046875 1.40625,0 2.921875,-2.859375 2.921875,-5.09375 z M 1.46875,-3.625 C 1.640625,-4.25 1.84375,-5.046875 2.25,-5.765625 2.515625,-6.25 2.875,-6.8125 3.328125,-6.8125 c 0.484375,0 0.546875,0.640625 0.546875,1.203125 0,0.5 -0.078125,1 -0.3125,1.984375 z m 2,0.328125 C 3.359375,-2.84375 3.15625,-2 2.765625,-1.28125 c -0.34375,0.6875 -0.71875,1.171875 -1.15625,1.171875 -0.328125,0 -0.53125,-0.296875 -0.53125,-1.21875 0,-0.421875 0.0625,-1 0.3125,-1.96875 z m 0,0"
               style="stroke:none"
               inkscape:connector-curvature="0" />
          </symbol>
        </g>
      </defs>
      <g
         id="textext-bc687335-2">
        <g
           id="g10491"
           style="fill:#000000;fill-opacity:1">
          <use
             id="use10493"
             y="134.765"
             x="223.43201"
             xlink:href="#textext-bc687335-1"
             width="744.09448"
             height="1052.3622" />
        </g>
      </g>
    </g>
    <g
       transform="matrix(1.25,0,0,1.25,-126.73075,459.70957)"
       ns0:text="$x$"
       ns0:preamble=""
       ns0:page_width=""
       style="stroke-width:0.0000001"
       id="g10767">
      <defs
         id="defs10769">
        <g
           id="g10771">
          <symbol
             style="overflow:visible"
             overflow="visible"
             id="textext-99d13bf1-0">
            <path
               inkscape:connector-curvature="0"
               style="stroke:none"
               d=""
               id="path10774" />
          </symbol>
          <symbol
             style="overflow:visible"
             overflow="visible"
             id="textext-99d13bf1-1">
            <path
               inkscape:connector-curvature="0"
               style="stroke:none"
               d="M 3.328125,-3.015625 C 3.390625,-3.265625 3.625,-4.1875 4.3125,-4.1875 c 0.046875,0 0.296875,0 0.5,0.125 C 4.53125,-4 4.34375,-3.765625 4.34375,-3.515625 c 0,0.15625 0.109375,0.34375 0.375,0.34375 0.21875,0 0.53125,-0.171875 0.53125,-0.578125 0,-0.515625 -0.578125,-0.65625 -0.921875,-0.65625 -0.578125,0 -0.921875,0.53125 -1.046875,0.75 -0.25,-0.65625 -0.78125,-0.75 -1.078125,-0.75 -1.03125,0 -1.609375,1.28125 -1.609375,1.53125 0,0.109375 0.109375,0.109375 0.125,0.109375 0.078125,0 0.109375,-0.03125 0.125,-0.109375 0.34375,-1.0625 1,-1.3125 1.34375,-1.3125 0.1875,0 0.53125,0.09375 0.53125,0.671875 0,0.3125 -0.171875,0.96875 -0.53125,2.375 -0.15625,0.609375 -0.515625,1.03125 -0.953125,1.03125 -0.0625,0 -0.28125,0 -0.5,-0.125 0.25,-0.0625 0.46875,-0.265625 0.46875,-0.546875 0,-0.265625 -0.21875,-0.34375 -0.359375,-0.34375 -0.3125,0 -0.546875,0.25 -0.546875,0.578125 0,0.453125 0.484375,0.65625 0.921875,0.65625 0.671875,0 1.03125,-0.703125 1.046875,-0.75 0.125,0.359375 0.484375,0.75 1.078125,0.75 1.03125,0 1.59375,-1.28125 1.59375,-1.53125 0,-0.109375 -0.078125,-0.109375 -0.109375,-0.109375 -0.09375,0 -0.109375,0.046875 -0.140625,0.109375 -0.328125,1.078125 -1,1.3125 -1.3125,1.3125 -0.390625,0 -0.546875,-0.3125 -0.546875,-0.65625 0,-0.21875 0.046875,-0.4375 0.15625,-0.875 z m 0,0"
               id="path10777" />
          </symbol>
        </g>
      </defs>
      <g
         id="textext-99d13bf1-2">
        <g
           style="fill:#000000;fill-opacity:1"
           id="g10780">
          <use
             height="1052.3622"
             width="744.09448"
             xlink:href="#textext-99d13bf1-1"
             x="223.43201"
             y="134.765"
             id="use10782" />
        </g>
      </g>
    </g>
    <g
       id="g11076"
       style="stroke-width:0.0000001"
       ns0:page_width=""
       ns0:preamble=""
       ns0:text="$y$"
       transform="matrix(1.25,0,0,1.25,-119.276,519.34757)">
      <defs
         id="defs11078">
        <g
           id="g11080">
          <symbol
             id="textext-0facab18-0"
             overflow="visible"
             style="overflow:visible">
            <path
               id="path11083"
               d=""
               style="stroke:none"
               inkscape:connector-curvature="0" />
          </symbol>
          <symbol
             id="textext-0facab18-1"
             overflow="visible"
             style="overflow:visible">
            <path
               id="path11086"
               d="m 4.84375,-3.796875 c 0.046875,-0.140625 0.046875,-0.15625 0.046875,-0.234375 0,-0.171875 -0.140625,-0.265625 -0.296875,-0.265625 -0.09375,0 -0.25,0.0625 -0.34375,0.203125 -0.015625,0.0625 -0.109375,0.359375 -0.140625,0.546875 -0.078125,0.25 -0.140625,0.53125 -0.203125,0.796875 l -0.453125,1.796875 c -0.03125,0.140625 -0.46875,0.84375 -1.125,0.84375 -0.5,0 -0.609375,-0.4375 -0.609375,-0.8125 C 1.71875,-1.375 1.890625,-2 2.21875,-2.875 2.375,-3.28125 2.421875,-3.390625 2.421875,-3.59375 c 0,-0.4375 -0.3125,-0.8125 -0.8125,-0.8125 -0.953125,0 -1.3125,1.453125 -1.3125,1.53125 0,0.109375 0.09375,0.109375 0.109375,0.109375 0.109375,0 0.109375,-0.03125 0.15625,-0.1875 0.28125,-0.9375 0.671875,-1.234375 1.015625,-1.234375 0.078125,0 0.25,0 0.25,0.3125 0,0.25 -0.109375,0.515625 -0.171875,0.703125 -0.40625,1.0625 -0.578125,1.625 -0.578125,2.09375 0,0.890625 0.625,1.1875 1.21875,1.1875 0.390625,0 0.71875,-0.171875 1,-0.453125 -0.125,0.515625 -0.25,1.015625 -0.640625,1.546875 -0.265625,0.328125 -0.640625,0.625 -1.09375,0.625 -0.140625,0 -0.59375,-0.03125 -0.765625,-0.421875 0.15625,0 0.296875,0 0.421875,-0.125 C 1.328125,1.203125 1.421875,1.0625 1.421875,0.875 1.421875,0.5625 1.15625,0.53125 1.0625,0.53125 0.828125,0.53125 0.5,0.6875 0.5,1.171875 c 0,0.5 0.4375,0.875 1.0625,0.875 1.015625,0 2.046875,-0.90625 2.328125,-2.03125 z m 0,0"
               style="stroke:none"
               inkscape:connector-curvature="0" />
          </symbol>
        </g>
      </defs>
      <g
         id="textext-0facab18-2">
        <g
           id="g11089"
           style="fill:#000000;fill-opacity:1">
          <use
             id="use11091"
             y="134.765"
             x="223.43201"
             xlink:href="#textext-0facab18-1"
             width="744.09448"
             height="1052.3622" />
        </g>
      </g>
    </g>
    <g
       transform="matrix(1.25,0,0,1.25,-156.54975,539.2269)"
       ns0:text="$z$"
       ns0:preamble=""
       ns0:page_width=""
       style="stroke-width:0.0000001"
       id="g11405">
      <defs
         id="defs11407">
        <g
           id="g11409">
          <symbol
             style="overflow:visible"
             overflow="visible"
             id="textext-06fa337e-0">
            <path
               inkscape:connector-curvature="0"
               style="stroke:none"
               d=""
               id="path11412" />
          </symbol>
          <symbol
             style="overflow:visible"
             overflow="visible"
             id="textext-06fa337e-1">
            <path
               inkscape:connector-curvature="0"
               style="stroke:none"
               d="m 1.328125,-0.828125 c 0.53125,-0.578125 0.828125,-0.828125 1.1875,-1.140625 0,0 0.609375,-0.53125 0.96875,-0.890625 C 4.4375,-3.78125 4.65625,-4.265625 4.65625,-4.3125 c 0,-0.09375 -0.09375,-0.09375 -0.109375,-0.09375 -0.078125,0 -0.09375,0.015625 -0.15625,0.109375 -0.296875,0.484375 -0.5,0.640625 -0.734375,0.640625 -0.25,0 -0.359375,-0.15625 -0.515625,-0.328125 -0.1875,-0.21875 -0.359375,-0.421875 -0.6875,-0.421875 -0.75,0 -1.203125,0.921875 -1.203125,1.140625 0,0.046875 0.03125,0.109375 0.109375,0.109375 0.09375,0 0.109375,-0.046875 0.140625,-0.109375 0.1875,-0.46875 0.765625,-0.46875 0.84375,-0.46875 0.203125,0 0.390625,0.0625 0.625,0.140625 0.40625,0.15625 0.515625,0.15625 0.765625,0.15625 -0.359375,0.421875 -1.1875,1.140625 -1.375,1.296875 l -0.90625,0.84375 C 0.78125,-0.625 0.421875,-0.0625 0.421875,0.015625 c 0,0.09375 0.109375,0.09375 0.125,0.09375 0.078125,0 0.09375,-0.015625 0.15625,-0.125 0.234375,-0.359375 0.53125,-0.625 0.859375,-0.625 0.21875,0 0.328125,0.09375 0.578125,0.375 0.15625,0.21875 0.34375,0.375 0.625,0.375 1,0 1.578125,-1.265625 1.578125,-1.53125 0,-0.046875 -0.046875,-0.109375 -0.125,-0.109375 -0.09375,0 -0.109375,0.0625 -0.140625,0.140625 C 3.84375,-0.75 3.203125,-0.5625 2.875,-0.5625 c -0.1875,0 -0.375,-0.0625 -0.578125,-0.125 -0.34375,-0.125 -0.5,-0.171875 -0.703125,-0.171875 -0.015625,0 -0.171875,0 -0.265625,0.03125 z m 0,0"
               id="path11415" />
          </symbol>
        </g>
      </defs>
      <g
         id="textext-06fa337e-2">
        <g
           style="fill:#000000;fill-opacity:1"
           id="g11418">
          <use
             height="1052.3622"
             width="744.09448"
             xlink:href="#textext-06fa337e-1"
             x="223.43201"
             y="134.765"
             id="use11420" />
        </g>
      </g>
    </g>
    <g
       id="g11754"
       style="stroke-width:0.0000001"
       ns0:page_width=""
       ns0:preamble=""
       ns0:text="$1$"
       transform="matrix(1.25,0,0,1.25,270.85591,263.40116)">
      <defs
         id="defs11756">
        <g
           id="g11758">
          <symbol
             id="textext-d8226010-0"
             overflow="visible"
             style="overflow:visible">
            <path
               id="path11761"
               d=""
               style="stroke:none"
               inkscape:connector-curvature="0" />
          </symbol>
          <symbol
             id="textext-d8226010-1"
             overflow="visible"
             style="overflow:visible">
            <path
               id="path11764"
               d="m 2.9375,-6.375 c 0,-0.25 0,-0.265625 -0.234375,-0.265625 C 2.078125,-6 1.203125,-6 0.890625,-6 l 0,0.3125 c 0.203125,0 0.78125,0 1.296875,-0.265625 l 0,5.171875 c 0,0.359375 -0.03125,0.46875 -0.921875,0.46875 l -0.3125,0 0,0.3125 c 0.34375,-0.03125 1.203125,-0.03125 1.609375,-0.03125 0.390625,0 1.265625,0 1.609375,0.03125 l 0,-0.3125 -0.3125,0 c -0.90625,0 -0.921875,-0.109375 -0.921875,-0.46875 z m 0,0"
               style="stroke:none"
               inkscape:connector-curvature="0" />
          </symbol>
        </g>
      </defs>
      <g
         id="textext-d8226010-2">
        <g
           id="g11767"
           style="fill:#000000;fill-opacity:1">
          <use
             id="use11769"
             y="134.765"
             x="223.43201"
             xlink:href="#textext-d8226010-1"
             width="744.09448"
             height="1052.3622" />
        </g>
      </g>
    </g>
    <g
       transform="matrix(1.25,0,0,1.25,238.55199,328.00899)"
       ns0:text="$2$"
       ns0:preamble=""
       ns0:page_width=""
       style="stroke-width:0.0000001"
       id="g12123">
      <defs
         id="defs12125">
        <g
           id="g12127">
          <symbol
             style="overflow:visible"
             overflow="visible"
             id="textext-7436cafc-0">
            <path
               inkscape:connector-curvature="0"
               style="stroke:none"
               d=""
               id="path12130" />
          </symbol>
          <symbol
             style="overflow:visible"
             overflow="visible"
             id="textext-7436cafc-1">
            <path
               inkscape:connector-curvature="0"
               style="stroke:none"
               d="m 1.265625,-0.765625 1.0625,-1.03125 c 1.546875,-1.375 2.140625,-1.90625 2.140625,-2.90625 0,-1.140625 -0.890625,-1.9375 -2.109375,-1.9375 -1.125,0 -1.859375,0.921875 -1.859375,1.8125 0,0.546875 0.5,0.546875 0.53125,0.546875 0.171875,0 0.515625,-0.109375 0.515625,-0.53125 0,-0.25 -0.1875,-0.515625 -0.53125,-0.515625 -0.078125,0 -0.09375,0 -0.125,0.015625 0.21875,-0.65625 0.765625,-1.015625 1.34375,-1.015625 0.90625,0 1.328125,0.8125 1.328125,1.625 C 3.5625,-3.90625 3.078125,-3.125 2.515625,-2.5 l -1.90625,2.125 C 0.5,-0.265625 0.5,-0.234375 0.5,0 l 3.703125,0 0.265625,-1.734375 -0.234375,0 C 4.171875,-1.4375 4.109375,-1 4,-0.84375 3.9375,-0.765625 3.28125,-0.765625 3.0625,-0.765625 z m 0,0"
               id="path12133" />
          </symbol>
        </g>
      </defs>
      <g
         id="textext-7436cafc-2">
        <g
           style="fill:#000000;fill-opacity:1"
           id="g12136">
          <use
             height="1052.3622"
             width="744.09448"
             xlink:href="#textext-7436cafc-1"
             x="223.43201"
             y="134.765"
             id="use12138" />
        </g>
      </g>
    </g>
    <g
       id="g12512"
       style="stroke-width:0.0000001"
       ns0:page_width=""
       ns0:preamble=""
       ns0:text="$3$"
       transform="matrix(1.25,0,0,1.25,152.82237,306.8872)">
      <defs
         id="defs12514">
        <g
           id="g12516">
          <symbol
             id="textext-d890b87b-0"
             overflow="visible"
             style="overflow:visible">
            <path
               id="path12519"
               d=""
               style="stroke:none"
               inkscape:connector-curvature="0" />
          </symbol>
          <symbol
             id="textext-d890b87b-1"
             overflow="visible"
             style="overflow:visible">
            <path
               id="path12522"
               d="m 2.890625,-3.515625 c 0.8125,-0.265625 1.390625,-0.953125 1.390625,-1.75 0,-0.8125 -0.875,-1.375 -1.828125,-1.375 -1,0 -1.765625,0.59375 -1.765625,1.359375 0,0.328125 0.21875,0.515625 0.515625,0.515625 0.296875,0 0.5,-0.21875 0.5,-0.515625 0,-0.484375 -0.46875,-0.484375 -0.609375,-0.484375 0.296875,-0.5 0.953125,-0.625 1.3125,-0.625 0.421875,0 0.96875,0.21875 0.96875,1.109375 0,0.125 -0.03125,0.703125 -0.28125,1.140625 C 2.796875,-3.65625 2.453125,-3.625 2.203125,-3.625 2.125,-3.609375 1.890625,-3.59375 1.8125,-3.59375 c -0.078125,0.015625 -0.140625,0.03125 -0.140625,0.125 0,0.109375 0.0625,0.109375 0.234375,0.109375 l 0.4375,0 c 0.8125,0 1.1875,0.671875 1.1875,1.65625 0,1.359375 -0.6875,1.640625 -1.125,1.640625 -0.4375,0 -1.1875,-0.171875 -1.53125,-0.75 0.34375,0.046875 0.65625,-0.171875 0.65625,-0.546875 0,-0.359375 -0.265625,-0.5625 -0.546875,-0.5625 -0.25,0 -0.5625,0.140625 -0.5625,0.578125 0,0.90625 0.921875,1.5625 2.015625,1.5625 1.21875,0 2.125,-0.90625 2.125,-1.921875 0,-0.8125 -0.640625,-1.59375 -1.671875,-1.8125 z m 0,0"
               style="stroke:none"
               inkscape:connector-curvature="0" />
          </symbol>
        </g>
      </defs>
      <g
         id="textext-d890b87b-2">
        <g
           id="g12525"
           style="fill:#000000;fill-opacity:1">
          <use
             id="use12527"
             y="134.765"
             x="223.43201"
             xlink:href="#textext-d890b87b-1"
             width="744.09448"
             height="1052.3622" />
        </g>
      </g>
    </g>
    <g
       transform="matrix(1.25,0,0,1.25,137.91287,365.28274)"
       ns0:text="$h$"
       ns0:preamble=""
       ns0:page_width=""
       style="stroke-width:0.0000001"
       id="g12921">
      <defs
         id="defs12923">
        <g
           id="g12925">
          <symbol
             style="overflow:visible"
             overflow="visible"
             id="textext-16eca5b4-0">
            <path
               inkscape:connector-curvature="0"
               style="stroke:none"
               d=""
               id="path12928" />
          </symbol>
          <symbol
             style="overflow:visible"
             overflow="visible"
             id="textext-16eca5b4-1">
            <path
               inkscape:connector-curvature="0"
               style="stroke:none"
               d="m 2.859375,-6.8125 c 0,0 0,-0.109375 -0.125,-0.109375 -0.234375,0 -0.953125,0.078125 -1.21875,0.109375 -0.078125,0 -0.1875,0.015625 -0.1875,0.1875 0,0.125 0.09375,0.125 0.234375,0.125 0.484375,0 0.5,0.0625 0.5,0.171875 L 2.03125,-6.125 0.59375,-0.390625 c -0.046875,0.140625 -0.046875,0.15625 -0.046875,0.21875 0,0.234375 0.203125,0.28125 0.296875,0.28125 0.15625,0 0.3125,-0.125 0.359375,-0.265625 l 0.1875,-0.75 0.21875,-0.890625 C 1.671875,-2.03125 1.734375,-2.25 1.78125,-2.46875 1.796875,-2.53125 1.890625,-2.859375 1.890625,-2.921875 1.921875,-3.015625 2.234375,-3.5625 2.578125,-3.84375 2.796875,-4 3.09375,-4.1875 3.53125,-4.1875 c 0.421875,0 0.53125,0.34375 0.53125,0.703125 0,0.53125 -0.375,1.625 -0.609375,2.234375 C 3.375,-1.03125 3.3125,-0.90625 3.3125,-0.703125 c 0,0.46875 0.359375,0.8125 0.828125,0.8125 0.9375,0 1.296875,-1.453125 1.296875,-1.53125 0,-0.109375 -0.078125,-0.109375 -0.109375,-0.109375 -0.109375,0 -0.109375,0.03125 -0.15625,0.1875 -0.140625,0.53125 -0.46875,1.234375 -1.015625,1.234375 -0.171875,0 -0.234375,-0.09375 -0.234375,-0.328125 0,-0.25 0.078125,-0.484375 0.171875,-0.703125 0.15625,-0.4375 0.609375,-1.625 0.609375,-2.203125 0,-0.640625 -0.390625,-1.0625 -1.140625,-1.0625 -0.625,0 -1.109375,0.3125 -1.484375,0.765625 z m 0,0"
               id="path12931" />
          </symbol>
        </g>
      </defs>
      <g
         id="textext-16eca5b4-2">
        <g
           style="fill:#000000;fill-opacity:1"
           id="g12934">
          <use
             height="1052.3622"
             width="744.09448"
             xlink:href="#textext-16eca5b4-1"
             x="223.43201"
             y="134.765"
             id="use12936" />
        </g>
      </g>
    </g>
    <g
       id="g13340"
       style="stroke-width:0.0000001"
       ns0:page_width=""
       ns0:preamble=""
       ns0:text="$\\dot{\\psi}$"
       transform="matrix(1.25,0,0,1.25,113.06371,128.95066)">
      <defs
         id="defs13342">
        <g
           id="g13344">
          <symbol
             id="textext-a16aac7c-0"
             overflow="visible"
             style="overflow:visible">
            <path
               id="path13347"
               d=""
               style="stroke:none"
               inkscape:connector-curvature="0" />
          </symbol>
          <symbol
             id="textext-a16aac7c-1"
             overflow="visible"
             style="overflow:visible">
            <path
               id="path13350"
               d="m 1.90625,-6.140625 c 0,-0.265625 -0.21875,-0.53125 -0.515625,-0.53125 -0.34375,0 -0.546875,0.28125 -0.546875,0.53125 0,0.265625 0.234375,0.53125 0.53125,0.53125 0.34375,0 0.53125,-0.28125 0.53125,-0.53125 z m 0,0"
               style="stroke:none"
               inkscape:connector-curvature="0" />
          </symbol>
          <symbol
             id="textext-a16aac7c-2"
             overflow="visible"
             style="overflow:visible">
            <path
               id="path13353"
               d=""
               style="stroke:none"
               inkscape:connector-curvature="0" />
          </symbol>
          <symbol
             id="textext-a16aac7c-3"
             overflow="visible"
             style="overflow:visible">
            <path
               id="path13356"
               d="m 4.8125,-6.65625 c 0,-0.046875 0.015625,-0.109375 0.015625,-0.15625 0,-0.09375 -0.0625,-0.109375 -0.109375,-0.109375 -0.109375,0 -0.109375,0.03125 -0.15625,0.203125 L 2.90625,-0.125 c -0.75,-0.09375 -1.125,-0.46875 -1.125,-1.125 0,-0.203125 0,-0.453125 0.53125,-1.84375 0.046875,-0.125 0.109375,-0.296875 0.109375,-0.5 0,-0.4375 -0.3125,-0.8125 -0.8125,-0.8125 -0.953125,0 -1.3125,1.453125 -1.3125,1.53125 0,0.109375 0.09375,0.109375 0.109375,0.109375 0.109375,0 0.109375,-0.03125 0.15625,-0.1875 0.28125,-0.9375 0.671875,-1.234375 1.015625,-1.234375 0.078125,0 0.25,0 0.25,0.3125 0,0.265625 -0.109375,0.515625 -0.234375,0.859375 C 1.109375,-1.75 1.109375,-1.5 1.109375,-1.328125 1.109375,-0.375 1.890625,0.03125 2.84375,0.09375 2.765625,0.453125 2.765625,0.46875 2.625,1 2.609375,1.109375 2.40625,1.90625 2.40625,1.9375 c 0,0.015625 0,0.109375 0.109375,0.109375 0.03125,0 0.078125,0 0.09375,-0.046875 0.03125,-0.015625 0.09375,-0.265625 0.125,-0.40625 l 0.375,-1.484375 c 0.375,0 1.25,0 2.1875,-1.0625 0.40625,-0.46875 0.609375,-0.90625 0.71875,-1.203125 0.09375,-0.25 0.3125,-1.109375 0.3125,-1.546875 0,-0.5625 -0.265625,-0.703125 -0.4375,-0.703125 -0.25,0 -0.5,0.265625 -0.5,0.484375 0,0.125 0.0625,0.1875 0.15625,0.265625 0.109375,0.109375 0.359375,0.359375 0.359375,0.84375 0,0.640625 -0.515625,1.453125 -0.875,1.8125 -0.875,0.890625 -1.515625,0.890625 -1.875,0.890625 z m 0,0"
               style="stroke:none"
               inkscape:connector-curvature="0" />
          </symbol>
        </g>
      </defs>
      <g
         id="textext-a16aac7c-4">
        <g
           id="g13359"
           style="fill:#000000;fill-opacity:1">
          <use
             id="use13361"
             y="132.136"
             x="226.57899"
             xlink:href="#textext-a16aac7c-1"
             width="523.89343"
             height="431.2861" />
        </g>
        <g
           id="g13363"
           style="fill:#000000;fill-opacity:1">
          <use
             id="use13365"
             y="134.765"
             x="223.43201"
             xlink:href="#textext-a16aac7c-3"
             width="523.89343"
             height="431.2861" />
        </g>
      </g>
    </g>
  </g>
</svg>
